<svg xmlns="http://www.w3.org/2000/svg" viewBox="0 0 233.83 158.55"><defs><style>.cls-1{fill:#0da3dd;}</style></defs><title>MattSucksColor</title><g id="Layer_2" data-name="Layer 2"><g id="Layer_1-2" data-name="Layer 1"><polygon points="75.65 23.29 63.07 30.39 75.65 33.7 75.65 71.22 44.48 76.05 44.48 40.88 0 65.99 12.58 69.3 12.58 138.59 44.48 144.69 44.48 113.44 75.65 113.88 75.65 150.66 116.92 158.55 116.92 0 75.65 23.29"/><polygon class="cls-1" points="189.35 40.88 189.35 76.05 158.18 71.22 158.18 33.7 170.76 30.39 158.18 23.29 116.92 0 116.92 158.55 158.18 150.66 158.18 113.88 189.35 113.44 189.35 144.69 221.25 138.59 221.25 69.3 233.83 65.99 189.35 40.88"/></g></g></svg>