<?xml version="1.0" encoding="utf-8"?>
<!-- Generator: Adobe Illustrator 20.1.0, SVG Export Plug-In . SVG Version: 6.00 Build 0)  -->
<svg version="1.1" id="Layer_1" xmlns="http://www.w3.org/2000/svg" xmlns:xlink="http://www.w3.org/1999/xlink" x="0px" y="0px"
	 viewBox="0 0 233.8 158.6" style="enable-background:new 0 0 233.8 158.6;" xml:space="preserve">
<style type="text/css">
	.st0{fill:#FFFFFF;}
	.st1{fill:#0DA3DD;}
</style>
<title>MattSucksColor</title>
<g id="Layer_2">
	<g id="Layer_1-2">
		<polygon class="st0" points="75.7,23.3 63.1,30.4 75.7,33.7 75.7,71.2 44.5,76.1 44.5,40.9 0,66 12.6,69.3 12.6,138.6 44.5,144.7 
			44.5,113.4 75.7,113.9 75.7,150.7 116.9,158.6 116.9,0 		"/>
		<polygon class="st1" points="189.4,40.9 189.4,76.1 158.2,71.2 158.2,33.7 170.8,30.4 158.2,23.3 116.9,0 116.9,158.6 
			158.2,150.7 158.2,113.9 189.4,113.4 189.4,144.7 221.2,138.6 221.2,69.3 233.8,66 		"/>
	</g>
</g>
</svg>
