<svg xmlns="http://www.w3.org/2000/svg" viewBox="0 0 111.89 72.57"><defs><style>.cls-1{fill:#fff;}</style></defs><title>MattSucksWht</title><g id="Layer_2" data-name="Layer 2"><g id="Layer_1-2" data-name="Layer 1"><polygon class="cls-1" points="34.63 10.66 28.87 13.91 34.63 15.43 34.63 32.6 20.36 34.81 20.36 18.71 0 30.21 5.76 31.72 5.76 63.44 20.36 66.23 20.36 51.93 34.63 52.13 34.63 68.96 53.52 72.57 53.52 0 34.63 10.66"/><polygon class="cls-1" points="91.53 18.71 91.53 34.81 77.26 32.6 77.26 15.43 83.02 13.91 77.26 10.66 58.37 0 58.37 72.57 77.26 68.96 77.26 52.13 91.53 51.93 91.53 66.23 106.13 63.44 106.13 31.72 111.89 30.21 91.53 18.71"/></g></g></svg>